<svg id="Layer_1" data-name="Layer 1" xmlns="http://www.w3.org/2000/svg" viewBox="0 0 2417 940"><defs><style>.cls-1{fill:#fff;}</style></defs><title>MERJ_LogoWhiteHorizontal</title><path class="cls-1" d="M285.89,90.56q-5.23,6.18-10,12.58l-1.73,2.42q-4.35,6-8.26,12.19l-1.24,1.91c-2.77,4.46-5.34,9-7.79,13.6l-1.74,3.33c-2.36,4.59-4.61,9.23-6.67,14l-0.92,2.22q-2.68,6.35-5,12.81l-1.23,3.4q-2.4,7-4.34,14.15l-1,4c-1.13,4.38-2.15,8.79-3,13.23l-0.57,2.89c-0.8,4.3-1.45,8.62-2,12.93-0.18,1.4-.35,2.79-0.51,4.19-0.54,4.74-1,9.5-1.26,14.27A243.91,243.91,0,0,0,257,363.09a3.87,3.87,0,0,0,.7.94,4,4,0,0,0,6.36-.94A235.92,235.92,0,0,1,533.21,246.4q7.38,2,14.65,4.43a4,4,0,0,0,3.47-.45,265.54,265.54,0,0,1,156.21-43.67c1.22,0,2.27-1.09,3.06-2a5.36,5.36,0,0,0,.77-4c-1.18-6.06-2.31-11.07-3.57-15.77A244,244,0,0,0,299.62,75.58c-3.6,3.6-7.25,7.53-11.45,12.35Z" transform="translate(-2 -4.26)"/><path class="cls-1" d="M711.37,747.79h0l0.57-3.15c0.72-3.93,1.33-7.88,1.86-11.85l0.52-3.93c0.57-4.94,1-9.9,1.3-14.87a241.49,241.49,0,0,0-28.41-128.52,4,4,0,0,0-7.06,0A235.4,235.4,0,0,1,639,641.08c-63.9,63.88-156.84,85.58-242.56,56.64a4,4,0,0,0-3.47.45,266.73,266.73,0,0,1-156.36,43.65,4,4,0,0,0-4.06,4.77l0.39,1.79c0.87,4.34,1.87,8.66,3.07,13.34l1,3.77q1.94,7.05,4.31,14l1.27,3.52c1.52,4.24,3.16,8.47,4.93,12.65l1,2.35c2,4.69,4.28,9.31,6.63,13.89l1.77,3.37c2.44,4.58,5,9.11,7.78,13.58l1.23,1.89q3.92,6.19,8.25,12.17l1.75,2.44q4.76,6.42,10,12.58l2.25,2.6c4.23,4.84,7.87,8.78,11.47,12.38A244,244,0,0,0,707.8,763.56C709,758.92,710.17,753.91,711.37,747.79Z" transform="translate(-2 -4.26)"/><path class="cls-1" d="M363,685.84a4,4,0,0,0-2.11-3.52A236,236,0,0,1,248.64,398.63a4,4,0,0,0-.45-3.47A266.47,266.47,0,0,1,204.5,238.94a4.25,4.25,0,0,0-1.61-3.11,4.49,4.49,0,0,0-3.56-.87l-0.81.15c-6.13,1.2-11.14,2.33-15.75,3.57A243.91,243.91,0,0,0,73.35,646.73c3.6,3.6,7.53,7.25,12.39,11.48l2.59,2.24q6.16,5.22,12.59,10l2.45,1.75q6,4.32,12.16,8.23l1.92,1.24c4.46,2.76,9,5.33,13.58,7.78l3.38,1.77c4.58,2.35,9.2,4.59,13.89,6.63l2.33,1c4.19,1.78,8.43,3.42,12.7,5l3.47,1.25q7,2.39,14.05,4.32L185,710.4c4.32,1.11,8.66,2.12,13,3l3.36,0.66q6.23,1.14,12.51,2l4.29,0.52c4.68,0.53,9.36,1,14,1.24h0.16a244.15,244.15,0,0,0,128.5-28.4A4,4,0,0,0,363,685.84Z" transform="translate(-2 -4.26)"/><path class="cls-1" d="M583.39,259.26a4,4,0,0,0,0,7.05,235.39,235.39,0,0,1,116.68,269q-2,7.38-4.43,14.65a4,4,0,0,0,.45,3.47,265.22,265.22,0,0,1,43.67,156.28,4,4,0,0,0,1.17,3l0.23,0.22a4,4,0,0,0,3.36.88l1.58-.33c4.46-.89,8.89-1.92,13.31-3.05l3.94-1q7.13-2,14.17-4.35l3.36-1.21q6.5-2.33,12.89-5l2.19-.89c4.71-2.05,9.36-4.3,14-6.67l3.32-1.73c4.6-2.45,9.15-5,13.63-7.8l1.85-1.21q6.23-3.92,12.24-8.28l2.39-1.72c4.18-3.09,8.42-6.46,12.61-10l2.61-2.26c4.84-4.22,8.77-7.86,12.37-11.46A243.85,243.85,0,0,0,761.54,238.68c-4.62-1.24-9.63-2.37-15.76-3.57l-3.25-.6c-3.91-.72-7.84-1.32-11.79-1.84l-4-.52c-4.95-.57-9.91-1-14.88-1.31A241.78,241.78,0,0,0,583.39,259.26Z" transform="translate(-2 -4.26)"/><path class="cls-1" d="M550.71,508.92l13,2.7c8.06,1.68,16.4-5.51,18.59-16l7.06-33.9c2.19-10.52-2.59-20.43-10.65-22.11l-13-2.7c-8.06-1.68-16.4,5.51-18.59,16l-7.06,33.9C537.88,497.33,542.66,507.25,550.71,508.92Z" transform="translate(-2 -4.26)"/><path class="cls-1" d="M393.58,508.92l-13,2.7c-8.06,1.68-16.4-5.51-18.59-16l-7.06-33.9c-2.19-10.52,2.59-20.43,10.65-22.11l13-2.7c8.06-1.68,16.4,5.51,18.59,16l7.06,33.9C406.42,497.33,401.63,507.25,393.58,508.92Z" transform="translate(-2 -4.26)"/><path class="cls-1" d="M1500.93,307.44a27.2,27.2,0,0,1,14.53,10.07,26.44,26.44,0,0,1,5.62,16.64V615.77a26.45,26.45,0,0,1-8,19.45,27.73,27.73,0,0,1-39.37,0,26.45,26.45,0,0,1-8-19.45V433.49l-87.42,144.33V578l-0.23.23-0.23.23-0.23.23c-0.47.78-.78,1.33-0.94,1.64l-0.7.94-1.17,1.17-0.94.94-0.94.94a13.21,13.21,0,0,1-1.41,1.17l-0.7.7a14.68,14.68,0,0,1-1.64.94,0.21,0.21,0,0,1-.23.23l-0.23.23h-0.23a5,5,0,0,1-1.64.94c-0.62.32-.86,0.47-0.7,0.47a6.53,6.53,0,0,0-1.41.47,25.33,25.33,0,0,1-11.25,2.11H1353q0.47,0-.94-0.23a27.74,27.74,0,0,1-6.09-1.17,1.85,1.85,0,0,1-.94-0.23c0.31,0.16,0,.08-0.94-0.23q-1.17-.47-1.64-0.7c0.16,0,0-.15-0.47-0.47a10.15,10.15,0,0,1-1.87-.94h-0.23l-0.23-.23-0.23-.23a6.26,6.26,0,0,1-1.64-1.17q0,0.23-.7-0.47a13.21,13.21,0,0,1-1.41-1.17l-0.94-.94-0.94-.94a4,4,0,0,0-1.17-1.17,2.41,2.41,0,0,1-.47-0.94,8.92,8.92,0,0,1-1.17-1.64l-0.23-.23a0.21,0.21,0,0,0-.23-0.23V578a0.21,0.21,0,0,0-.23-0.23l-87.19-144.33V615.77a26.07,26.07,0,0,1-8.2,19.45,26.84,26.84,0,0,1-19.69,8.2,28,28,0,0,1-27.66-27.65V334.15a26.44,26.44,0,0,1,5.62-16.64A27.2,27.2,0,0,1,1208,307.44a28.26,28.26,0,0,1,17.58.94,27.94,27.94,0,0,1,13.59,11.48l115.31,190.48,115.31-190.48a26.74,26.74,0,0,1,13.36-11.48l8.67-3.28Z" transform="translate(-2 -4.26)"/><path class="cls-1" d="M1832.94,587.89a26.09,26.09,0,0,1,19.45,8.2,26.85,26.85,0,0,1,8.2,19.68,28,28,0,0,1-27.66,27.65H1663.26a28,28,0,0,1-27.66-27.65V334.85A28,28,0,0,1,1663.26,307h0.23l169.45,0.47a26.85,26.85,0,0,1,19.69,8.2,27.25,27.25,0,0,1,8,19.68A28,28,0,0,1,1832.94,363h-0.23l-141.56-.47v85h102.18a27.27,27.27,0,0,1,19.69,8,27.71,27.71,0,0,1,0,39.36,27.25,27.25,0,0,1-19.69,8H1691.15v85h141.79Z" transform="translate(-2 -4.26)"/><path class="cls-1" d="M2193.77,404.67q0,30.93-19.22,56Q2156,485.5,2125.81,496L2179,603.82a27.91,27.91,0,0,1-12.66,36.78,27.85,27.85,0,0,1-12.19,2.81q-17.11,0-24.61-15.46l-62.11-125.82h-47.58V613.9a27.6,27.6,0,0,1-27.66,27.41,27.2,27.2,0,0,1-27.42-27.41V334.62A27.6,27.6,0,0,1,1992.22,307h97q43.36,0,73.83,28.58Q2193.77,364.14,2193.77,404.67Zm-102.65,42.41q19.69-.7,33.75-12.89,13.83-12.42,13.83-29.52,0-17.8-14.53-30.22T2089.24,362h-69.37v85h71.25Z" transform="translate(-2 -4.26)"/><path class="cls-1" d="M2363.45,335.32a28,28,0,0,1,27.89-27.88,26.09,26.09,0,0,1,19.45,8.2,26.85,26.85,0,0,1,8.2,19.68V541.5q0,42.17-29.76,72.16-30,29.76-72.19,29.76a28,28,0,0,1-27.66-27.65,26.85,26.85,0,0,1,8.2-19.68,26.09,26.09,0,0,1,19.45-8.2,46.4,46.4,0,0,0,46.4-46.39V335.32Z" transform="translate(-2 -4.26)"/></svg>