<?xml version="1.0" encoding="utf-8"?>
<!-- Generator: Adobe Illustrator 19.2.0, SVG Export Plug-In . SVG Version: 6.00 Build 0)  -->
<svg version="1.1" id="Layer_1" xmlns="http://www.w3.org/2000/svg" xmlns:xlink="http://www.w3.org/1999/xlink" x="0px" y="0px"
	 viewBox="0 0 1240 1480" style="enable-background:new 0 0 1240 1480;" xml:space="preserve">
<title>MERJ_LogoWhiteVertical</title>
<path d="M433.7,86.3c-3.5,4.1-6.8,8.3-10,12.6l-1.7,2.4c-2.9,4-5.7,8.1-8.3,12.2l-1.2,1.9c-2.8,4.5-5.3,9-7.8,13.6l-1.7,3.3
	c-2.4,4.6-4.6,9.2-6.7,14l-0.9,2.2c-1.8,4.2-3.5,8.5-5,12.8l-1.2,3.4c-1.6,4.7-3,9.4-4.3,14.1l-1,4c-1.1,4.4-2.2,8.8-3,13.2
	l-0.6,2.9c-0.8,4.3-1.5,8.6-2,12.9c-0.2,1.4-0.4,2.8-0.5,4.2c-0.5,4.8-1,9.5-1.3,14.3c-2.5,44.6,7.3,89,28.4,128.5
	c0.2,0.3,0.4,0.7,0.7,0.9c1.6,1.6,4.1,1.6,5.7,0c0.3-0.3,0.5-0.6,0.7-0.9c51.7-96.8,163.3-145.1,269.3-116.7
	c4.9,1.3,9.8,2.8,14.7,4.4c1.2,0.4,2.5,0.2,3.5-0.4c46.3-30.5,100.9-45.8,156.3-43.7c1.2,0,2.3-1.1,3.1-2c0.8-1.2,1-2.6,0.8-4
	c-1.2-6.1-2.3-11.1-3.6-15.8C820.8,50.6,686.9-26.7,556.7,8.3c-41.3,11.1-79,32.9-109.3,63.1c-3.6,3.6-7.2,7.5-11.5,12.4L433.7,86.3
	z"/>
<path d="M859.3,744L859.3,744l0.6-3.2c0.7-3.9,1.3-7.9,1.9-11.9l0.5-3.9c0.6-5,1-9.9,1.3-14.9c2.6-44.7-7.2-89.2-28.4-128.6
	c-1-1.9-3.5-2.7-5.4-1.6c-0.7,0.4-1.3,0.9-1.6,1.6c-10.9,20.5-24.8,39.2-41.2,55.6C723,701.1,630,722.8,544.3,693.9
	c-1.2-0.4-2.5-0.2-3.5,0.5c-46.3,30.5-101,45.7-156.4,43.7c-2.2-0.1-4.1,1.7-4.1,3.9c0,0.3,0,0.6,0.1,0.9l0.4,1.8
	c0.9,4.3,1.9,8.7,3.1,13.3l1,3.8c1.3,4.7,2.7,9.4,4.3,14l1.3,3.5c1.5,4.2,3.2,8.5,4.9,12.7l1,2.3c2,4.7,4.3,9.3,6.6,13.9l1.8,3.4
	c2.5,4.6,5,9.1,7.8,13.6l1.2,1.9c2.6,4.1,5.4,8.2,8.2,12.2l1.8,2.4c3.2,4.3,6.5,8.5,10,12.6l2.2,2.6c4.2,4.8,7.9,8.8,11.5,12.4
	c95.3,95.3,249.8,95.3,345.2,0c30.3-30.3,52.1-68,63.2-109.4C857,755.1,858.1,750.1,859.3,744z"/>
<path d="M510.8,682c0-1.5-0.8-2.8-2.1-3.5C406.9,624,359.4,503.9,396.4,394.6c0.4-1.2,0.2-2.5-0.5-3.5
	c-30.5-46.3-45.7-100.9-43.7-156.3c-0.1-1.2-0.6-2.4-1.6-3.1c-1-0.8-2.3-1.1-3.6-0.9l-0.8,0.1c-6.1,1.2-11.1,2.3-15.8,3.6
	C200.3,269.4,123,403.2,157.9,533.4c11.1,41.4,32.9,79.1,63.1,109.4c3.6,3.6,7.5,7.2,12.4,11.5l2.6,2.2c4.1,3.5,8.3,6.8,12.6,10
	l2.4,1.8c4,2.9,8.1,5.6,12.2,8.2l1.9,1.2c4.5,2.8,9,5.3,13.6,7.8l3.4,1.8c4.6,2.3,9.2,4.6,13.9,6.6l2.3,1c4.2,1.8,8.4,3.4,12.7,5
	l3.5,1.2c4.7,1.6,9.4,3,14.1,4.3l4.1,1.1c4.3,1.1,8.7,2.1,13,3l3.4,0.7c4.2,0.8,8.3,1.4,12.5,2l4.3,0.5c4.7,0.5,9.4,1,14,1.2h0.2
	c44.7,2.4,89.2-7.4,128.6-28.6C509.9,684.8,510.7,683.5,510.8,682z"/>
<path d="M731.3,255.2c-1.9,1-2.7,3.5-1.6,5.4c0.4,0.7,0.9,1.3,1.6,1.6c96.8,51.6,145.2,163.2,116.7,269.1c-1.3,4.9-2.8,9.8-4.4,14.7
	c-0.4,1.2-0.2,2.5,0.5,3.5c30.5,46.3,45.8,101,43.7,156.4c0,1.1,0.4,2.2,1.2,3l0.2,0.2c0.9,0.8,2.2,1.1,3.4,0.9l1.6-0.3
	c4.5-0.9,8.9-1.9,13.3-3.1l3.9-1c4.8-1.3,9.5-2.8,14.2-4.3l3.4-1.2c4.3-1.6,8.6-3.2,12.9-5l2.3-1c4.7-2.1,9.4-4.3,14-6.7l3.3-1.7
	c4.6-2.5,9.2-5,13.6-7.8l1.8-1.2c4.2-2.6,8.2-5.4,12.2-8.3l2.4-1.7c4.2-3.1,8.4-6.5,12.6-10l2.6-2.3c4.8-4.2,8.8-7.9,12.4-11.5
	c95.3-95.3,95.3-249.8,0.1-345.1c-30.3-30.3-68.1-52.2-109.6-63.2c-4.6-1.2-9.6-2.4-15.8-3.6l-3.2-0.6c-3.9-0.7-7.8-1.3-11.8-1.8
	l-4-0.5c-5-0.6-9.9-1-14.9-1.3C815.2,224.1,770.7,234,731.3,255.2z"/>
<path d="M698.6,505l13,2.7c8.1,1.7,16.4-5.5,18.6-16l7.1-33.9c2.2-10.5-2.6-20.5-10.7-22.1l-13-2.7c-8.1-1.7-16.4,5.5-18.6,16
	l-7,33.9C685.8,493.4,690.5,503.3,698.6,505z"/>
<path d="M541.4,505l-13,2.7c-8.1,1.7-16.4-5.5-18.6-16l-7.1-33.9c-2.2-10.5,2.6-20.5,10.6-22.1l13-2.7c8.1-1.7,16.4,5.5,18.6,16
	l7,33.9C554.2,493.4,549.5,503.3,541.4,505z"/>
<path d="M313.5,1143.8c5.8,1.7,10.9,5.2,14.5,10.1c3.7,4.7,5.7,10.6,5.6,16.6v281.8c0.1,7.3-2.8,14.4-8,19.5
	c-10.8,10.9-28.4,10.9-39.2,0.2c-0.1-0.1-0.1-0.1-0.2-0.2c-5.2-5.1-8.1-12.1-8-19.5v-182.4l-87.5,144.4v0.2l-0.2,0.2l-0.2,0.2
	l-0.2,0.2c-0.5,0.8-0.8,1.3-0.9,1.6l-0.7,0.9l-1.2,1.2l-0.9,0.9l-0.9,0.9c-0.4,0.4-0.9,0.8-1.4,1.2l-0.7,0.7
	c-0.5,0.3-1.1,0.7-1.6,0.9c0,0.1-0.1,0.2-0.2,0.2c0,0,0,0,0,0l-0.2,0.2H181c-0.5,0.4-1,0.7-1.6,0.9c-0.6,0.3-0.9,0.5-0.7,0.5
	c-0.5,0.1-1,0.3-1.4,0.5c-3.5,1.6-7.4,2.3-11.2,2.1h-0.5c0.3,0,0-0.1-0.9-0.2c-2.1-0.2-4.1-0.6-6.1-1.2c-0.3,0-0.7-0.1-0.9-0.2
	c0.3,0.2,0,0.1-0.9-0.2c-0.8-0.3-1.3-0.5-1.6-0.7c0.2,0,0-0.2-0.5-0.5c-0.7-0.2-1.3-0.6-1.9-0.9h-0.2l-0.2-0.2l-0.2-0.2
	c-0.6-0.3-1.2-0.7-1.6-1.2c0,0.2-0.2,0-0.7-0.5c-0.5-0.4-1-0.7-1.4-1.2l-0.9-0.9l-0.9-0.9c-0.3-0.5-0.7-0.9-1.2-1.2
	c-0.2-0.3-0.4-0.6-0.5-0.9c-0.5-0.5-0.8-1.1-1.2-1.6l-0.2-0.2c0-0.1-0.1-0.2-0.2-0.2c0,0,0,0,0,0v-0.2c0-0.1-0.1-0.2-0.2-0.2
	c0,0,0,0,0,0l-87.2-144.4v182.4c0.1,7.4-2.9,14.4-8.2,19.5c-5.2,5.3-12.3,8.3-19.7,8.2c-7.4,0.1-14.4-2.9-19.5-8.2
	c-5.4-5-8.3-12.1-8.2-19.5v-281.8c-0.1-6,1.9-11.9,5.6-16.6c3.6-4.9,8.9-8.5,14.8-10.1c5.8-1.6,12-1.2,17.6,0.9
	c5.7,2.2,10.4,6.3,13.6,11.5L167,1346.8l115.4-190.6c3-5.2,7.7-9.3,13.4-11.5l8.7-3.3L313.5,1143.8z"/>
<path d="M645.7,1424.4c7.4-0.1,14.4,2.9,19.5,8.2c5.3,5.1,8.3,12.3,8.2,19.7c-0.2,15.2-12.5,27.5-27.7,27.7H475.9
	c-15.2-0.2-27.5-12.5-27.7-27.7v-281.1c0.1-15.3,12.4-27.7,27.7-27.9h0.2l169.5,0.5c7.4-0.1,14.5,2.9,19.7,8.2
	c5.2,5.2,8.1,12.3,8,19.7c-0.2,15.2-12.5,27.5-27.7,27.7h-0.2l-141.6-0.5v85.1H606c7.4-0.1,14.5,2.8,19.7,8
	c10.9,10.8,10.9,28.3,0.2,39.2c-0.1,0.1-0.1,0.1-0.2,0.2c-5.2,5.2-12.3,8.1-19.7,8H503.8v85.1L645.7,1424.4L645.7,1424.4z"/>
<path d="M1006.7,1241.1c0,20.6-6.4,39.3-19.2,56c-12.3,16.6-28.6,28.4-48.8,35.4l53.2,107.8c6.4,13.7,0.8,30-12.7,36.8
	c-3.8,1.9-8,2.8-12.2,2.8c-11.4,0-19.6-5.2-24.6-15.5l-62.1-125.9h-47.6v111.8c-0.1,15.2-12.5,27.4-27.6,27.4
	c-15,0.1-27.3-12-27.4-27c0-0.1,0-0.3,0-0.4V1171c0-15.2,12.2-27.6,27.4-27.7h97.1c28.9,0,53.5,9.5,73.9,28.6
	C996.4,1191,1006.7,1214.1,1006.7,1241.1z M904,1283.6c13.1-0.5,24.4-4.8,33.8-12.9c9.2-8.3,13.8-18.1,13.8-29.5
	c0-11.9-4.8-22-14.5-30.2s-21.3-12.4-34.9-12.4h-69.4v85.1L904,1283.6L904,1283.6z"/>
<path d="M1184.4,1171.7c0.1-15.4,12.5-27.8,27.9-27.9c7.4-0.1,14.4,2.9,19.5,8.2c5.3,5.1,8.3,12.3,8.2,19.7V1378
	c0,28.1-9.9,52.2-29.8,72.2c-20,19.8-44.1,29.8-72.2,29.8c-15.2-0.2-27.5-12.5-27.7-27.7c-0.1-7.4,2.9-14.5,8.2-19.7
	c5-5.4,12.1-8.3,19.5-8.2c25.6,0,46.4-20.8,46.4-46.4L1184.4,1171.7L1184.4,1171.7z"/>
</svg>
