<svg id="Layer_1" data-name="Layer 1" xmlns="http://www.w3.org/2000/svg" viewBox="0 0 1240 1480"><defs><style>.cls-1{fill:#fff;}</style></defs><title>MERJ_LogoWhiteVertical</title><path class="cls-1" d="M435.66,88.34q-5.24,6.18-10,12.59l-1.73,2.43q-4.35,6-8.26,12.19l-1.24,1.91c-2.77,4.46-5.34,9-7.8,13.61l-1.74,3.33c-2.37,4.6-4.61,9.23-6.67,14l-0.92,2.22q-2.69,6.35-5,12.81l-1.23,3.41q-2.4,7-4.34,14.15l-1,4c-1.13,4.39-2.16,8.8-3,13.24l-0.57,2.9c-0.8,4.3-1.45,8.62-2,12.94-0.18,1.4-.35,2.8-0.51,4.2-0.54,4.75-1,9.5-1.26,14.28A244.07,244.07,0,0,0,406.77,361a3.88,3.88,0,0,0,.7.94,4,4,0,0,0,6.36-.94A236,236,0,0,1,683.09,244.28q7.39,2,14.66,4.43a4,4,0,0,0,3.48-.45A265.64,265.64,0,0,1,857.5,204.57c1.22,0,2.27-1.09,3.06-2a5.37,5.37,0,0,0,.77-4c-1.18-6.07-2.32-11.08-3.57-15.78A244.14,244.14,0,0,0,449.39,73.36c-3.6,3.6-7.25,7.54-11.46,12.36Z" transform="translate(-2 -1.99)"/><path class="cls-1" d="M861.34,746h0l0.57-3.15c0.72-3.93,1.33-7.89,1.86-11.86l0.52-3.93c0.57-4.95,1-9.9,1.3-14.88a241.66,241.66,0,0,0-28.43-128.6,4,4,0,0,0-7.06,0,235.53,235.53,0,0,1-41.16,55.64C725,703.1,632,724.82,546.28,695.86a4,4,0,0,0-3.48.45A266.83,266.83,0,0,1,386.37,740a4,4,0,0,0-4.06,4.77l0.39,1.79c0.87,4.35,1.87,8.66,3.07,13.35l1,3.77q1.94,7.06,4.31,14l1.27,3.52c1.52,4.25,3.16,8.48,4.93,12.65l1,2.35c2,4.69,4.28,9.31,6.63,13.9l1.77,3.37c2.45,4.58,5,9.12,7.78,13.59l1.23,1.89q3.92,6.2,8.25,12.18l1.75,2.44q4.76,6.43,10,12.59l2.25,2.6c4.23,4.85,7.88,8.78,11.48,12.38A244.07,244.07,0,0,0,857.76,761.74C859,757.09,860.14,752.08,861.34,746Z" transform="translate(-2 -1.99)"/><path class="cls-1" d="M512.76,684a4,4,0,0,0-2.11-3.53A236.1,236.1,0,0,1,398.39,396.59a4,4,0,0,0-.45-3.48,266.65,266.65,0,0,1-43.71-156.3,4.25,4.25,0,0,0-1.61-3.12,4.49,4.49,0,0,0-3.56-.87l-0.82.15c-6.13,1.2-11.14,2.33-15.76,3.57A244.06,244.06,0,0,0,223,644.84c3.6,3.6,7.54,7.25,12.39,11.48l2.59,2.24q6.16,5.23,12.59,10l2.45,1.75q6,4.32,12.16,8.24l1.92,1.24c4.46,2.77,9,5.34,13.58,7.78l3.38,1.77c4.58,2.35,9.2,4.59,13.9,6.64l2.33,1c4.19,1.78,8.43,3.42,12.71,5l3.47,1.25q7,2.39,14.06,4.32l4.14,1.08c4.32,1.11,8.66,2.12,13,3l3.37,0.66q6.23,1.14,12.52,2l4.29,0.52c4.68,0.53,9.36,1,14,1.24h0.16A244.23,244.23,0,0,0,510.64,687.5,4,4,0,0,0,512.76,684Z" transform="translate(-2 -1.99)"/><path class="cls-1" d="M733.3,257.14a4,4,0,0,0,0,7.06A235.53,235.53,0,0,1,850,533.34q-2,7.38-4.44,14.66a4,4,0,0,0,.45,3.48,265.4,265.4,0,0,1,43.69,156.38,4,4,0,0,0,1.17,3l0.23,0.22a4,4,0,0,0,3.37.88l1.58-.33c4.46-.89,8.9-1.92,13.31-3.06l3.94-1q7.14-2,14.18-4.35l3.36-1.21q6.51-2.33,12.9-5L946,696c4.71-2.06,9.36-4.31,14-6.67l3.32-1.73c4.6-2.46,9.16-5,13.63-7.81l1.85-1.21q6.23-3.92,12.24-8.28l2.4-1.72c4.18-3.09,8.43-6.46,12.61-10l2.61-2.26c4.84-4.22,8.78-7.87,12.38-11.47A244,244,0,0,0,911.52,236.55c-4.62-1.24-9.63-2.37-15.77-3.57l-3.25-.6c-3.92-.72-7.85-1.32-11.8-1.84l-4-.52c-5-.57-9.92-1-14.89-1.31A241.87,241.87,0,0,0,733.3,257.14Z" transform="translate(-2 -1.99)"/><path class="cls-1" d="M700.61,507l13,2.71c8.06,1.68,16.41-5.52,18.6-16l7.06-33.92c2.19-10.52-2.59-20.45-10.65-22.12l-13-2.71c-8.06-1.68-16.41,5.52-18.6,16L690,484.83C687.76,495.35,692.54,505.27,700.61,507Z" transform="translate(-2 -1.99)"/><path class="cls-1" d="M543.39,507l-13,2.71c-8.06,1.68-16.41-5.52-18.6-16l-7.06-33.92c-2.19-10.52,2.59-20.45,10.65-22.12l13-2.71c8.06-1.68,16.41,5.52,18.6,16L554,484.83C556.24,495.35,551.46,505.27,543.39,507Z" transform="translate(-2 -1.99)"/><path class="cls-1" d="M315.5,1145.81A27.21,27.21,0,0,1,330,1155.89a26.46,26.46,0,0,1,5.63,16.64v281.79a26.46,26.46,0,0,1-8,19.46,27.74,27.74,0,0,1-39.39,0,26.46,26.46,0,0,1-8-19.46V1271.94l-87.46,144.41v0.23l-0.23.23-0.23.23-0.23.23c-0.47.79-.78,1.33-0.94,1.64l-0.7.94-1.17,1.17-0.94.94-0.94.94a13.22,13.22,0,0,1-1.41,1.17l-0.7.7a14.69,14.69,0,0,1-1.64.94,0.21,0.21,0,0,1-.23.23l-0.23.23H183a5,5,0,0,1-1.64.94c-0.63.32-.86,0.47-0.7,0.47a6.53,6.53,0,0,0-1.41.47,25.34,25.34,0,0,1-11.25,2.11h-0.47q0.47,0-.94-0.23a27.75,27.75,0,0,1-6.1-1.17,1.85,1.85,0,0,1-.94-0.23c0.31,0.16,0,.08-0.94-0.23q-1.17-.47-1.64-0.7c0.16,0,0-.15-0.47-0.47a10.16,10.16,0,0,1-1.88-.94h-0.23l-0.23-.23-0.23-.23a6.26,6.26,0,0,1-1.64-1.17q0,0.23-.7-0.47a13.22,13.22,0,0,1-1.41-1.17l-0.94-.94-0.94-.94a4,4,0,0,0-1.17-1.17,2.42,2.42,0,0,1-.47-0.94,8.93,8.93,0,0,1-1.17-1.64l-0.23-.23a0.21,0.21,0,0,0-.23-0.23v-0.23a0.21,0.21,0,0,0-.23-0.23L57.57,1271.94v182.39a26.08,26.08,0,0,1-8.21,19.46,26.85,26.85,0,0,1-19.7,8.21,26.09,26.09,0,0,1-19.46-8.21A26.08,26.08,0,0,1,2,1454.33V1172.54a26.46,26.46,0,0,1,5.63-16.64,27.21,27.21,0,0,1,14.77-10.08,28.27,28.27,0,0,1,17.59.94,28,28,0,0,1,13.6,11.49l115.36,190.59,115.36-190.59a26.75,26.75,0,0,1,13.37-11.49l8.68-3.28Z" transform="translate(-2 -1.99)"/><path class="cls-1" d="M647.66,1426.43a26.1,26.1,0,0,1,19.46,8.21,26.87,26.87,0,0,1,8.21,19.69A28,28,0,0,1,647.66,1482H477.89a28,28,0,0,1-27.67-27.66V1173.24a28,28,0,0,1,27.67-27.9h0.23l169.53,0.47a26.86,26.86,0,0,1,19.7,8.21,27.27,27.27,0,0,1,8,19.69,28,28,0,0,1-27.67,27.66h-0.23l-141.62-.47V1286H608a27.28,27.28,0,0,1,19.7,8,27.73,27.73,0,0,1,0,39.38,27.26,27.26,0,0,1-19.7,8H505.8v85.1H647.66Z" transform="translate(-2 -1.99)"/><path class="cls-1" d="M1008.66,1243.1q0,30.95-19.23,56-18.52,24.85-48.77,35.4l53.23,107.84a27.93,27.93,0,0,1-12.66,36.81A27.86,27.86,0,0,1,969,1482q-17.12,0-24.62-15.47l-62.14-125.89h-47.6v111.82A27.62,27.62,0,0,1,807,1479.88a27.22,27.22,0,0,1-27.43-27.43V1173A27.62,27.62,0,0,1,807,1145.34h97.07q43.38,0,73.86,28.6Q1008.66,1202.55,1008.66,1243.1ZM906,1285.54q19.7-.7,33.76-12.89,13.83-12.42,13.83-29.54,0-17.81-14.54-30.24t-34.94-12.42H834.68v85.1H906Z" transform="translate(-2 -1.99)"/><path class="cls-1" d="M1186.43,1173.71a28,28,0,0,1,27.9-27.9,26.1,26.1,0,0,1,19.46,8.21,26.87,26.87,0,0,1,8.21,19.69V1380q0,42.2-29.78,72.21-30,29.77-72.22,29.77a28,28,0,0,1-27.67-27.66,26.87,26.87,0,0,1,8.21-19.69,26.1,26.1,0,0,1,19.46-8.21,46.43,46.43,0,0,0,46.43-46.42v-206.3Z" transform="translate(-2 -1.99)"/></svg>